<svg id="Layer_1" data-name="Layer 1" xmlns="http://www.w3.org/2000/svg" viewBox="0 0 200 200"><defs><style>.cls-1{fill:#171717;}</style></defs><path class="cls-1" d="M160,12a28,28,0,0,1,28,28V160a28,28,0,0,1-28,28H40a28,28,0,0,1-28-28V40A28,28,0,0,1,40,12H160m0-12H40A40,40,0,0,0,0,40V160a40,40,0,0,0,40,40H160a40,40,0,0,0,40-40V40A40,40,0,0,0,160,0Z"/><circle class="cls-1" cx="59" cy="146.08" r="16"/><path class="cls-1" d="M176.77,162.08h-20A113.9,113.9,0,0,0,43,48.31v-20C116.76,28.31,176.77,88.32,176.77,162.08Z"/><path class="cls-1" d="M127.26,162.08h-20A64.33,64.33,0,0,0,43,97.82v-20A84.36,84.36,0,0,1,127.26,162.08Z"/></svg>